HIERARCHY
ROOT Hips
{
	OFFSET 48.115101 -3.977755 93.700897
	CHANNELS 6 Xposition Yposition Zposition Xrotation Yrotation Zrotation
	JOINT spine
	{
		OFFSET 0.000000 -0.448574 7.800591
		CHANNELS 3 Xrotation Yrotation Zrotation
		JOINT spine1
		{
			OFFSET 0.000000 -0.000001 10.136398
			CHANNELS 3 Xrotation Yrotation Zrotation
			JOINT spine2
			{
				OFFSET 0.000000 -0.000001 9.712509
				CHANNELS 3 Xrotation Yrotation Zrotation
				JOINT Neck
				{
					OFFSET 0.000000 -1.188874 24.936104
					CHANNELS 3 Xrotation Yrotation Zrotation
					JOINT Head
					{
						OFFSET 0.000000 -0.000001 7.533844
						CHANNELS 3 Xrotation Yrotation Zrotation
						End Site
						{
							OFFSET 0.000000 6.014017 18.236099
						}
					}
				}
				JOINT RightShoulder
				{
					OFFSET -4.089649 0.569455 10.488808
					CHANNELS 3 Xrotation Yrotation Zrotation
					JOINT RightArm
					{
						OFFSET 0.000000 -0.000002 13.757004
						CHANNELS 3 Xrotation Yrotation Zrotation
						JOINT RightArmRoll
						{
							OFFSET 0.000000 -0.000001 6.944778
							CHANNELS 3 Xrotation Yrotation Zrotation
							JOINT RightForeArm
							{
								OFFSET 0.000000 -0.000003 20.227692
								CHANNELS 3 Xrotation Yrotation Zrotation
								JOINT RightForeArmRoll
								{
									OFFSET 0.000000 -0.000001 7.793121
									CHANNELS 3 Xrotation Yrotation Zrotation
									JOINT RightHand
									{
										OFFSET 0.000000 -0.000003 15.639099
										CHANNELS 3 Xrotation Yrotation Zrotation
										End Site
										{
											OFFSET 0.000000 0.000000 0.100006
										}
									}
								}
							}
						}
					}
				}
				JOINT LeftShoulder
				{
					OFFSET 4.089649 0.569455 10.488808
					CHANNELS 3 Xrotation Yrotation Zrotation
					JOINT LeftArm
					{
						OFFSET 0.000000 -0.000002 13.757004
						CHANNELS 3 Xrotation Yrotation Zrotation
						JOINT LeftArmRoll
						{
							OFFSET 0.000000 -0.000001 6.944778
							CHANNELS 3 Xrotation Yrotation Zrotation
							JOINT LeftForeArm
							{
								OFFSET 0.000000 -0.000003 20.227692
								CHANNELS 3 Xrotation Yrotation Zrotation
								JOINT LeftForeArmRoll
								{
									OFFSET 0.000000 -0.000001 7.793121
									CHANNELS 3 Xrotation Yrotation Zrotation
									JOINT LeftHand
									{
										OFFSET 0.000000 -0.000003 15.639099
										CHANNELS 3 Xrotation Yrotation Zrotation
										End Site
										{
											OFFSET 0.000000 0.000000 0.100006
										}
									}
								}
							}
						}
					}
				}
			}
		}
	}
	JOINT RightUpLeg
	{
		OFFSET -6.914158 1.063580 -1.267883
		CHANNELS 3 Xrotation Yrotation Zrotation
		JOINT RightUpLegRoll
		{
			OFFSET 0.000000 -0.000003 18.337799
			CHANNELS 3 Xrotation Yrotation Zrotation
			JOINT RightLeg
			{
				OFFSET 0.000000 0.000004 -22.708496
				CHANNELS 3 Xrotation Yrotation Zrotation
				JOINT RightLegRoll
				{
					OFFSET 0.000000 -0.000004 22.782799
					CHANNELS 3 Xrotation Yrotation Zrotation
					JOINT RightFoot
					{
						OFFSET 0.000000 -0.000003 18.962898
						CHANNELS 3 Xrotation Yrotation Zrotation
						JOINT RightToeBase
						{
							OFFSET 0.000000 -0.000003 15.852005
							CHANNELS 3 Xrotation Yrotation Zrotation
							End Site
							{
								OFFSET 0.006718 0.884892 7.677002
							}
						}
					}
				}
			}
		}
	}
	JOINT LeftUpLeg
	{
		OFFSET 6.914158 1.063580 -1.267883
		CHANNELS 3 Xrotation Yrotation Zrotation
		JOINT LeftUpLegRoll
		{
			OFFSET 0.000000 -0.000003 18.337898
			CHANNELS 3 Xrotation Yrotation Zrotation
			JOINT LeftLeg
			{
				OFFSET 0.000000 -0.000004 22.708397
				CHANNELS 3 Xrotation Yrotation Zrotation
				JOINT LeftLegRoll
				{
					OFFSET 0.000000 -0.000004 22.993408
					CHANNELS 3 Xrotation Yrotation Zrotation
					JOINT LeftFoot
					{
						OFFSET 0.000000 -0.000003 18.752197
						CHANNELS 3 Xrotation Yrotation Zrotation
						JOINT LeftToeBase
						{
							OFFSET 0.000000 -0.000003 15.852005
							CHANNELS 3 Xrotation Yrotation Zrotation
							End Site
							{
								OFFSET -0.030113 0.884891 7.677017
							}
						}
					}
				}
			}
		}
	}
}
MOTION
Frames: 9
Frame Time: 0.041667
43.075996 -4.134202 77.283691 2.261010 -0.765893 6.879679 1.368931 0.038114 0.404635 6.740400 0.089829 0.807345 8.385412 0.099495 0.806213 -12.478644 15.283218 -4.626036 -13.207814 -15.023863 -8.882495 -15.459435 -61.397793 -18.320114 -59.521007 -113.962581 -29.929346 -0.000001 0.000021 0.000001 41.213392 -1.318524 -1.162394 0.000000 0.000006 -3.000001 -5.000363 -7.998699 0.000219 -10.842627 67.357304 13.235736 -398.631997 107.646083 382.024283 0.000002 0.000012 -0.000000 42.872356 0.236433 0.801111 -0.000001 -0.000003 3.000000 -5.000337 7.999349 -0.000113 -37.743298 174.065349 -0.770136 -179.999991 0.000005 -1.750996 105.155817 3.257931 0.931465 -0.000003 -0.000001 3.753410 103.584743 6.068099 1.847560 25.468160 -7.352104 0.007450 -42.738225 -179.742193 -7.032774 -0.000007 -0.000004 -1.971020 -80.813985 0.781286 1.912234 -0.000005 -0.000006 -3.403941 92.090355 -7.070317 2.312153 39.660320 7.156936 -1.707902 
43.143898 -4.177283 77.450600 2.179044 -0.802808 6.890095 1.377651 0.039897 0.405338 6.757840 0.093496 0.808584 8.402856 0.103175 0.807407 -12.556521 15.393619 -4.602210 -13.081125 -15.106155 -8.884871 -15.423254 -61.133929 -18.271521 -59.667713 -113.876616 -29.954078 -0.000000 0.000022 0.000001 42.000561 -1.328037 -1.154713 0.000004 0.000005 -3.000002 -5.000356 -7.998702 0.000217 -10.888611 67.301296 13.284874 -399.521506 107.515135 382.641923 0.000002 0.000012 -0.000000 44.485415 0.155907 0.780286 -0.000000 -0.000003 2.999999 -5.000335 7.999355 -0.000117 -37.545383 174.138173 -0.789164 -179.999991 0.000005 -1.744999 105.410214 3.245221 0.911832 -0.000008 -0.000001 3.729239 103.442621 6.071706 1.846783 25.468358 -7.352126 0.007423 -42.419095 -179.747520 -7.017133 -0.000007 -0.000005 -1.966769 -80.438899 0.911872 2.006848 -0.000001 -0.000006 -3.376089 92.191728 -7.083675 2.424675 39.395821 7.164193 -1.675181 
43.187698 -4.158773 77.502701 2.101974 -0.835899 6.906608 1.383154 0.040903 0.405615 6.768829 0.095570 0.808967 8.413847 0.105253 0.807767 -12.616743 15.490360 -4.579998 -12.957899 -15.173672 -8.882933 -15.390465 -60.881615 -18.227065 -59.846657 -113.763330 -30.014529 -0.000001 0.000022 0.000003 42.797719 -1.344959 -1.143073 -0.000002 0.000005 -3.000001 -5.000362 -7.998704 0.000216 -10.914901 67.242973 13.311698 -400.438391 107.380689 383.249373 0.000001 0.000010 -0.000003 46.174746 0.060742 0.760899 -0.000001 -0.000003 2.999999 -5.000339 7.999352 -0.000119 -37.341003 174.219834 -0.801124 -179.999991 0.000006 -1.736994 105.686201 3.223803 0.886808 -0.000004 -0.000001 3.702650 103.293012 6.076407 1.843284 25.468664 -7.352154 0.007384 -42.092086 -179.749173 -6.987515 -0.000007 -0.000004 -1.961829 -80.033083 1.051788 2.103525 -0.000006 -0.000006 -3.345360 92.296435 -7.098321 2.543452 39.109387 7.171787 -1.640022 
43.201397 -4.180053 77.696609 2.029650 -0.865494 6.929202 1.385582 0.041200 0.405479 6.773689 0.096189 0.808532 8.418707 0.105867 0.807323 -12.660881 15.574672 -4.559830 -12.837288 -15.227326 -8.877473 -15.361457 -60.640188 -18.187289 -60.054589 -113.625258 -30.107102 -0.000000 0.000022 -0.000000 43.603265 -1.368376 -1.127644 0.000002 0.000005 -3.000001 -5.000359 -7.998702 0.000218 -10.923412 67.182014 13.318333 -401.383279 107.244126 383.851440 0.000002 0.000011 -0.000001 47.924330 -0.046640 0.744631 -0.000001 -0.000004 2.999999 -5.000336 7.999353 -0.000116 -37.130158 174.312015 -0.808031 -179.999991 0.000006 -1.730000 105.983021 3.194131 0.858461 -0.000005 -0.000001 3.673729 103.135973 6.081612 1.835139 25.469166 -7.352176 0.007364 -41.758971 -179.748613 -6.945178 -0.000003 -0.000005 -1.956249 -79.599940 1.199929 2.201493 -0.000002 -0.000006 -3.311950 92.400404 -7.114071 2.667239 38.806160 7.179588 -1.602996 
43.257999 -4.174664 77.796692 1.961926 -0.891914 6.957822 1.385121 0.040856 0.404940 6.772780 0.095490 0.807310 8.417805 0.105153 0.806108 -12.690425 15.647560 -4.542154 -12.718544 -15.268311 -8.869382 -15.336512 -60.408754 -18.152495 -60.290039 -113.464298 -30.230438 -0.000000 0.000023 0.000001 44.415702 -1.397391 -1.108631 0.000002 0.000006 -3.000001 -5.000365 -7.998702 0.000218 -10.915883 67.117708 13.306701 -402.357346 107.105795 384.453617 0.000002 0.000012 -0.000000 49.717978 -0.163694 0.732814 -0.000004 -0.000001 3.000000 -5.000335 7.999348 -0.000113 -36.913307 174.412432 -0.808823 -179.999991 0.000006 -1.721995 106.300331 3.156504 0.825841 -0.000007 -0.000001 3.642581 102.971140 6.087828 1.823295 25.469675 -7.352201 0.007325 -41.421190 -179.745048 -6.893371 -0.000009 -0.000004 -1.950069 -79.142447 1.355208 2.300073 0.000002 -0.000006 -3.276099 92.500077 -7.130691 2.795799 38.491630 7.187438 -1.564712 
43.261795 -4.194001 77.976997 1.898650 -0.915479 6.992456 1.381942 0.039939 0.404011 6.766440 0.093610 0.805329 8.411455 0.103249 0.804152 -12.706991 15.710337 -4.527310 -12.600812 -15.297657 -8.859434 -15.315900 -60.186377 -18.123021 -60.549702 -113.282902 -30.380774 0.000001 0.000022 0.000001 45.233423 -1.431116 -1.086292 -0.000001 0.000005 -3.000001 -5.000362 -7.998705 0.000220 -10.894243 67.049713 13.278919 -403.364936 106.965509 385.064373 0.000003 0.000012 0.000002 51.539914 -0.287789 0.726363 0.000000 -0.000003 2.999998 -5.000337 7.999354 -0.000114 -36.690765 174.521196 -0.804256 -179.999991 0.000004 -1.713007 106.637688 3.111205 0.788981 -0.000005 -0.000001 3.609280 102.798554 6.094644 1.807826 25.470281 -7.352229 0.007292 -41.080388 -179.741455 -6.831917 -0.000002 -0.000004 -1.943350 -78.663774 1.516480 2.398628 -0.000004 -0.000005 -3.238011 92.591649 -7.148222 2.926901 38.171024 7.195203 -1.525755 
43.322197 -4.188632 78.115997 1.839653 -0.936504 7.033058 1.376220 0.038517 0.402701 6.754990 0.090685 0.802624 8.400016 0.100293 0.801481 -12.712170 15.763979 -4.515658 -12.483240 -15.316264 -8.848362 -15.299962 -59.972278 -18.099291 -60.832294 -113.083023 -30.556928 0.000001 0.000023 0.000000 46.054736 -1.468699 -1.060933 0.000000 0.000002 -3.000002 -5.000357 -7.998700 0.000216 -10.860199 66.977327 13.236905 -404.403370 106.825265 385.685046 0.000002 0.000011 -0.000002 53.374035 -0.416253 0.725729 -0.000001 -0.000002 2.999999 -5.000338 7.999349 -0.000115 -36.462647 174.637651 -0.794549 -179.999991 0.000005 -1.702994 106.994463 3.058544 0.747939 -0.000005 -0.000001 3.573941 102.617985 6.102021 1.787740 25.470996 -7.352235 0.007268 -40.738298 -179.737084 -6.763990 -0.000007 -0.000004 -1.936149 -78.167034 1.682566 2.496553 -0.000004 -0.000007 -3.197898 92.671098 -7.166452 3.059288 37.849811 7.202758 -1.486751 
43.363701 -4.188734 78.312103 1.784796 -0.955304 7.079587 1.368114 0.036656 0.401026 6.738789 0.086855 0.799223 8.383813 0.096423 0.798126 -12.707474 15.809590 -4.507582 -12.365076 -15.325351 -8.837017 -15.289028 -59.765590 -18.081654 -61.138669 -112.866219 -30.759624 -0.000000 0.000019 -0.000001 46.878129 -1.509306 -1.032897 -0.000001 0.000004 -3.000001 -5.000365 -7.998706 0.000216 -10.815716 66.900187 13.182800 -405.474508 106.685629 386.321974 0.000002 0.000011 -0.000001 55.204253 -0.546383 0.730889 -0.000003 -0.000002 2.999998 -5.000334 7.999348 -0.000115 -36.229448 174.761018 -0.779814 -179.999991 0.000005 -1.694005 107.370485 2.998359 0.701875 -0.000006 -0.000001 3.536639 102.429267 6.109931 1.762055 25.471700 -7.352257 0.007249 -40.396307 -179.733450 -6.690685 -0.000005 -0.000005 -1.928511 -77.655255 1.852267 2.593346 -0.000003 -0.000006 -3.155979 92.734858 -7.185523 3.192746 37.533245 7.209995 -1.448280 
43.411201 -4.184375 78.476891 1.733922 -0.972189 7.132010 1.357792 0.034427 0.398994 6.718177 0.082257 0.795156 8.363204 0.091776 0.794116 -12.694655 15.848540 -4.503299 -12.245570 -15.325915 -8.826165 -15.283395 -59.565451 -18.070476 -61.465111 -112.634751 -30.984918 0.000000 0.000023 0.000000 47.701908 -1.552112 -1.002578 0.000002 0.000004 -2.999999 -5.000363 -7.998700 0.000219 -10.762480 66.817589 13.118481 -406.582583 106.546552 386.983383 0.000003 0.000010 0.000001 57.014635 -0.675529 0.741311 -0.000002 0.000002 3.000000 -5.000339 7.999349 -0.000115 -35.991357 174.890682 -0.760252 -179.999991 0.000005 -1.682995 107.765126 2.931056 0.650829 -0.000005 -0.000001 3.497480 102.232373 6.118139 1.730797 25.472315 -7.352287 0.007217 -40.056102 -179.732098 -6.613087 -0.000003 -0.000005 -1.920490 -77.131605 2.024325 2.688548 -0.000003 -0.000006 -3.112469 92.779036 -7.205412 3.327006 37.226679 7.216831 -1.410966 
